<svg id="Layer_1" data-name="Layer 1" xmlns="http://www.w3.org/2000/svg" viewBox="0 0 11.95 11.8"><defs><style>.cls-1{fill:#8731e8;}</style></defs><path class="cls-1" d="M.48,4.67a5.69,5.69,0,0,1,9.86-2.76A5.42,5.42,0,0,1,11.6,4.3c0,.19.21.07.35.09L11.2,5.87l-.9-1.39.3,0C8.89-1.3,1.63-.07.35,5.36.39,5.13.43,4.9.48,4.67Z"/><path class="cls-1" d="M2,10.23A5.49,5.49,0,0,1,.36,7.49c0-.19-.22-.07-.36-.1L.75,5.92l.9,1.39-.32,0c1.72,5.73,9.05,4.53,10.26-.91A5.72,5.72,0,0,1,2,10.23Z"/><circle class="cls-1" cx="6.17" cy="1.23" r="0.22"/><circle class="cls-1" cx="6.17" cy="10.52" r="0.22"/><circle class="cls-1" cx="10.38" cy="5.73" r="0.22"/><circle class="cls-1" cx="1.67" cy="5.73" r="0.22"/><circle class="cls-1" cx="10.01" cy="8.13" r="0.15"/><circle class="cls-1" cx="8.56" cy="9.58" r="0.15"/><circle class="cls-1" cx="10.01" cy="3.63" r="0.15"/><circle class="cls-1" cx="8.56" cy="2.03" r="0.15"/><circle class="cls-1" cx="3.63" cy="1.89" r="0.15"/><circle class="cls-1" cx="2.03" cy="3.63" r="0.15"/><circle class="cls-1" cx="2.32" cy="7.98" r="0.15"/><circle class="cls-1" cx="3.77" cy="9.58" r="0.15"/><path class="cls-1" d="M4.19,3.77a.88.88,0,1,0,.87.87A.87.87,0,0,0,4.19,3.77Zm0,1.45a.58.58,0,1,1,.58-.58A.58.58,0,0,1,4.19,5.22Z"/><path class="cls-1" d="M4.2,6.08A.87.87,0,1,0,5.07,7,.87.87,0,0,0,4.2,6.08Zm0,1.45A.58.58,0,1,1,4.78,7,.58.58,0,0,1,4.2,7.53Z"/><polygon class="cls-1" points="4.92 4.5 6.39 5.75 9.11 7.53 6.21 6.41 4.85 4.75 4.92 4.5"/><polygon class="cls-1" points="4.83 7.01 6.34 5.79 9.11 4.05 6.14 5.14 4.75 6.76 4.83 7.01"/></svg>