<?xml version="1.0" encoding="utf-8"?>
<!-- Generator: Adobe Illustrator 26.2.1, SVG Export Plug-In . SVG Version: 6.00 Build 0)  -->
<svg version="1.1" id="Layer_1" xmlns="http://www.w3.org/2000/svg" xmlns:xlink="http://www.w3.org/1999/xlink" x="0px" y="0px"
	 viewBox="0 0 1000 1000" style="enable-background:new 0 0 1000 1000;" xml:space="preserve">
<style type="text/css">
	.st0{fill:#FFFFFF;}
</style>
<g>
	<g transform="translate(0.000000,511.000000) scale(0.100000,-0.100000)">
		<path class="st0" d="M161.2,3772.8L100,3714V698v-3015.9l61.2-58.8L220-2438h1313.2H2844v-526.8c0-529.2,0-529.2,61.3-588
			c31.8-34.3,88.2-61.3,122.5-61.3c41.7,0,426.3,215.6,1046.2,588l977.5,588h2364.2H9780l58.8,61.3l61.3,58.8V698v3016l-61.3,58.8
			l-58.8,61.3H5000H220L161.2,3772.8z M8270.8,2204.8c80.8-78.4,80.8-191.1,0-269.5L8212,1874H5000H1788l-58.8,61.3
			c-39.2,36.8-61.3,88.2-61.3,134.8s22.1,98,61.3,134.7l58.8,61.3h3212h3211.9L8270.8,2204.8z M8270.8,1028.8
			c80.8-78.4,80.8-191.1,0-269.5L8212,698H5000H1788l-58.8,61.3C1690,796,1668,847.5,1668,894s22.1,98,61.3,134.8l58.8,61.3h3212
			H8212L8270.8,1028.8z M5134.7-147.2c80.8-78.4,80.8-191.1,0-269.5l-58.8-61.3H3432H1788l-58.8,61.3C1690-380,1668-328.6,1668-282
			s22.1,98,61.3,134.7L1788-86h1644h1643.9L5134.7-147.2z"/>
	</g>
</g>
</svg>
