<?xml version="1.0" encoding="utf-8"?>
<!-- Generator: Adobe Illustrator 26.2.1, SVG Export Plug-In . SVG Version: 6.00 Build 0)  -->
<svg version="1.1" id="Layer_1" xmlns="http://www.w3.org/2000/svg" xmlns:xlink="http://www.w3.org/1999/xlink" x="0px" y="0px"
	 viewBox="0 0 1000 1000" style="enable-background:new 0 0 1000 1000;" xml:space="preserve">
<style type="text/css">
	.st0{fill:#FFFFFF;}
</style>
<g>
	<g transform="translate(0.000000,511.000000) scale(0.100000,-0.100000)">
		<path class="st0" d="M2312.1,4956.8c-79.9-79.9-90.5-228.9-74.5-1152.6c16-1030.1,29.3-1136.6,268.8-2025.6
			c66.5-242.2,218.3-617.5,348.7-857.1C3108,461,3089.3,652.7,3097.3-1577.9c8-1887.2,10.6-1972.4,61.2-2142.7
			c157-508.4,577.6-905,1096.7-1027.4c239.6-55.9,1272.3-55.9,1511.9,0c519,122.4,939.6,519,1096.6,1030.1
			c53.2,170.4,53.2,250.2,61.3,2129.4c5.3,1951.1,5.3,1951.1,66.5,2121.4c31.9,93.2,95.8,242.2,141.1,332.7
			c159.7,316.8,370,897,468.5,1306.9c130.4,527,162.4,905,165,1911.2l2.7,803.9l-69.2,61.2c-93.2,77.2-210.3,77.2-292.8-8
			c-63.9-61.2-66.5-77.2-66.5-425.9v-359.3H7130h-213l5.3,425.9l5.3,425.9h-205H6515l-5.3-178.3c-2.7-101.1,0-292.8,2.7-425.9
			l8-247.5h-212.9h-212.9l-18.6,82.5c-10.6,45.2-16,181-10.6,300.8c2.7,117.1,5.3,271.5,2.7,343.4l-5.3,125.1h-199.6
			c-231.6,0-205,66.5-207.6-497.8v-354h-221h-218.2l2.7,420.6l5.3,417.9l-212.9,8l-212.9,8l5.3-428.5l5.3-425.9h-228.9H4354l8,247.5
			c2.7,133.1,5.3,324.7,2.7,425.9l-5.3,178.3h-199.6h-199.6l-5.3-125.1c-2.7-71.9,0-226.3,2.7-343.4c5.3-119.8,0-255.5-10.6-300.8
			l-18.6-82.5h-205h-207.6v354c-2.7,191.7-2.7,386-5.3,425.9l-2.7,74.5l-205-8l-207.6-8l5.3-417.9l2.7-420.6h-210.3h-210.3v359.3
			c0,348.7-2.7,364.7-66.5,425.9C2535.7,5023.3,2386.6,5031.3,2312.1,4956.8z M7340.2,3516.7v-212.9H4997.8H2655.5v212.9v212.9
			h2342.4h2342.4L7340.2,3516.7L7340.2,3516.7z M7287,2811.4c0-189-125.1-700-255.5-1051.4c-125.1-327.4-90.5-306.1-276.8-183.7
			c-902.3,604.2-2627.2,590.9-3524.2-29.3c-69.2-45.3-133.1-77.2-146.4-69.2c-37.3,24-236.9,590.9-295.5,841.1
			c-29.3,125.1-61.2,300.8-69.2,393.9l-18.6,165h2294.5H7287V2811.4z M5503.6,1563c447.2-69.2,907.7-244.9,1139.2-436.5l87.8-74.5
			l-90.5-202.3c-50.6-109.1-236.9-425.9-412.6-702.7c-340.7-537.7-487.1-809.2-535-987.5c-21.3-71.8-32-503.1-37.2-1211.1
			c-8-1072.7-8-1102-66.6-1211.1c-103.8-196.9-183.7-234.2-540.3-242.2c-356.7-10.7-457.8,18.7-567,159.7
			c-37.3,50.6-79.9,151.7-93.2,223.6c-10.6,71.9-24,598.9-24,1171.2c0,1179.2-5.3,1213.8-202.3,1621
			C4098-196.3,3917,96.5,3757.3,322.7C3597.6,549,3421.9,807.2,3366,895l-98.5,159.7l85.2,74.5c117.1,98.5,468.5,268.8,700,335.4
			C4484.1,1594.9,5045.7,1632.2,5503.6,1563z M3685.6-334.9c258.2-439.2,255.5-412.6,263.5-1727.5c8-1086,13.3-1157.9,63.9-1296.3
			c69.2-186.3,258.2-399.3,436.5-492.4c130.4-69.2,151.7-71.8,561.6-71.8s431.2,2.6,561.6,71.8c178.3,93.2,367.3,306.1,436.5,492.4
			c53.2,141.1,55.9,207.6,63.9,1229.7c5.3,1038.1,8,1086,63.9,1219.1c63.9,159.7,316.8,612.2,348.7,633.5
			c31.9,18.6,31.9-2874.7,2.7-3135.6c-55.9-457.8-343.4-795.9-785.2-913c-183.7-50.6-1200.5-50.6-1384.1,0
			c-356.7,93.2-612.2,327.4-737.3,673.4c-55.9,149.1-58.5,199.6-63.9,1852.6c-5.3,931.6,2.7,1695.6,10.6,1695.6
			C3539.2-103.3,3611-207.1,3685.6-334.9z"/>
		<path class="st0" d="M4803.5,1137.1c-135.8-47.9-268.8-154.4-340.7-271.5c-74.5-119.8-106.5-428.5-77.2-761.3
			c21.3-276.8,93.2-404.6,282.1-527c316.8-199.6,721.3-95.8,894.4,228.9c69.2,127.8,74.5,157.1,77.2,508.4
			c2.7,346-2.7,383.3-61.2,503.1C5437,1102.5,5099,1240.9,4803.5,1137.1z M5149.6,684.6c74.5-63.9,74.5-69.2,71.8-364.7
			c0-290.1-2.6-300.8-74.5-359.3c-90.5-79.9-181-79.9-271.5-2.7c-69.2,61.2-71.9,71.9-74.5,362c-2.7,298.1-2.7,300.8,71.9,364.7
			C4968.6,767.1,5053.7,764.5,5149.6,684.6z"/>
	</g>
</g>
</svg>
