<?xml version="1.0" encoding="utf-8"?>
<!-- Generator: Adobe Illustrator 26.2.1, SVG Export Plug-In . SVG Version: 6.00 Build 0)  -->
<svg version="1.1" id="Layer_1" xmlns="http://www.w3.org/2000/svg" xmlns:xlink="http://www.w3.org/1999/xlink" x="0px" y="0px"
	 viewBox="0 0 2000 1200" style="enable-background:new 0 0 2000 1200;" xml:space="preserve">
<style type="text/css">
	.st0{display:none;}
	.st1{display:inline;fill:none;stroke:#A84106;stroke-width:2;stroke-linecap:round;stroke-miterlimit:10;stroke-dasharray:8,4;}
	.st2{opacity:0.3;fill:#FFFFFF;}
	.st3{fill:#F4F4F4;stroke:#000000;stroke-miterlimit:10;}
	.st4{fill:none;stroke:#000000;stroke-width:2;stroke-miterlimit:10;}
	.st5{fill:none;stroke:#000000;stroke-width:3;stroke-miterlimit:10;}
	.st6{fill:none;stroke:#000000;stroke-width:5;stroke-miterlimit:10;}
	.st7{fill:none;stroke:#000000;stroke-width:2;stroke-linecap:round;stroke-miterlimit:10;}
	.st8{fill:none;stroke:#000000;stroke-width:2;stroke-linecap:round;stroke-miterlimit:10;stroke-dasharray:8.0081,4.0041;}
	.st9{fill:none;stroke:#000000;stroke-width:2;stroke-linecap:round;stroke-miterlimit:10;stroke-dasharray:8,4;}
	.st10{display:inline;fill:#000100;}
	.st11{font-family:'MyriadPro-Regular';}
	.st12{font-size:18px;}
	.st13{display:inline;fill-rule:evenodd;clip-rule:evenodd;fill:#DD6326;}
	.st14{display:inline;fill-rule:evenodd;clip-rule:evenodd;fill:#88B046;}
	.st15{display:inline;}
	.st16{fill:#FFFFFF;}
</style>
<g id="Original" class="st0">
</g>
<g id="Layer_12" class="st0">
	<path class="st1" d="M1184.4,573.9"/>
</g>
<g id="Achtergrond">
	<rect class="st2" width="2000" height="1200"/>
</g>
<g id="Map">
	<g id="Omtrek_-_steden">
		<path class="st3" d="M666.4,227.9l56,71l64-28l70,109l-68,106l-78,85l15,29l-30,16l7,30l2.5-1.5l5,40l-2.5,16l2.5,42l2.5,9.5
			l4,3.5l1.5,19l5,6l-2,13l2,25.5l-5,13.5l6,42.5l15.5,1l18.5-17.5l2,5.5l13,0.5l10-1c0,0,17-21,39.5-26.5l-4-22l47-9.5l37-0.5
			l11.5-5l9-1l15,3.5l22.5-0.5l18.5-3l50.5,7l-7,46.5l-2.5,1.5l-1.5,9l8,1.5l1.5-16.5l1-3l21,2l4.5,4.5l15.5,1.5l-0.5,5.5l11,2.5
			l21.5-16l4,2.5v6.5l4.5,3l-4.5,6l3,3l4,2l-0.5,4l-5,1l1,6h7l2.5-3.5l-3-16.5l2.5-4.5l-8-35l7-10l7,0.5l2,10.5h-4.5l3.5,19.5l5,0.5
			l2,13l22.5-2l-2-32.5c0,0,9.5-0.5,25.5-14l9-2c0,0,2,3.5,4.5,2.5s2.5-5.5,2.5-5.5h4l1.5,3.5l11.5,1.5l3-6l11,1.5l1-9l12-1l0.5-6.5
			l-12.5-12.5l4-9l-9-13c0,0,1-9,4-11l23-11l-13-10.5l16-12.5v-7.5l53.5,13l7-52l-4-13.5l-8.5-1l-3-7l3.5-3.5c0,0-22.5-28.5-34-38.5
			l9-5.5l-0.5-7l14-7.5l-0.5-3l16-7.5l-5-13.5l-5.5-3l31-12l-9.5-26l-33,6l-1-13l-5.5-13h-5l-4.5-19.5l1.5-4.5l-5.5-4.5l7.5-5l2-4
			l-35,8.5l-0.5-24.5l2.5-20.5l-2.5-25l-9.5-3l-0.5-15l-5-6.5l-1.5-5.5l-4,3l-1.5-5l-2.5-3l-3.5-0.5l-1-7.5c0,0-8.5,5-15,4
			s-17.5-1-15.5,6.5s0,11-4,12.5s-6,3-2,7s10,21,10,21l-27,26l-56-1l31.5-63.5l1-5.5l13.5-11.5l-4.5-9.5c0,0-12.5,5-13.5,2
			s22.5-9.5,33.5-8.5c0,0,2.5-8.5-2-14.5s-37-40.5,1-54c0,0-4.5-13-2.5-21.5s-1.5-13-1.5-16.5s-1-10,4.5-16c0,0,3-5.5,1-7
			s1.5-4.5,1.5-4.5s-11-7.5-1-13.5c0,0,11.5-11,11.5-14.5s-4-4.5-6-4.5c0,0-50-5-69.5-9c0,0-50.5,19-53.5,19.5l-7.5-15l4-2.5l1-19
			c0,0,5-16.5-28-33l-35-15.5l-4,3.5l-5.5-5.5l-3,4c0,0-12.5-13.5-24.5-9l-6.5-0.5l-7.5,12l8,8.5l9.5,17.5l-4.5,6.5l-4.5-1l-5.5,9
			l10.5,8.5l-8.5,4l-12-5.5l-19.5-6l-9,3.5l10,9.5l-8.5,3.5l-4.5-6l-9-3l-9.5,27.5l2,3.5l1.5,11l1,3.5l-11.5,1.5l-8-12.5l-15-93
			l-32,6.5l-68.5,27l-21,14.5l-2.5,4.5l-5.5,2l14,27.5l-32.5,29.5l-5.5-3.5l-2.5,3l2,4.5l-6,2l3.5,9l-3.5,3.5l0.5,3l-8,2
			L666.4,227.9z"/>
		<path class="st3" d="M1307,339.9l6.7,3l3-4l2.3,2l-8.7,23l16.3,4.7c0,0,1,9,3,7s11-5,11-5c-1.7,11.3,10.7,20.3,10.7,20.3l4.3-2.3
			c0,0,10,9.3,13.7,14s2.3,8.3,2.3,8.3s2.7,5.3,3,6.3s4.7,5,4.7,5s8.3-2.3,11-3s3.3-2.3,4.3-2s6-3,7-4.3s3.7-0.3,7.3-0.3
			s27.3-7.7,31.3-9.7s9.3-10,10.3-10.7s9.3-1.7,10-2.7s6-1.7,6-1.7s-2.3-47.7-2.3-49.7s7.3-4.7,8.3-4.7s6.3,4.3,6.3,5.7
			s11,5.7,11,5.7s37.7-42.3,40.7-46s3.3-11,3.3-11l9.3-1c0,0,0.7-5.7,1.7-10.3s8.7-19.3,9.3-20.3s3.3-3.7,4-7s-5.3-13.7-5.3-13.7
			l-9.7,0.3c0,0-24-9-27-9.7s-8.3-4-10.3-4.3s-6-2-6-2c0.7-4.7-4-6.7-4-6.7c-1.7,0.7-11-0.3-13.3-0.7s-6.3-0.7-21.7-1
			s-21,2.3-27.3,2.3s-9.7-2.3-11.3-3.3s-1.3-4-1.3-4l-6-3l-8.7,0.3l-6,2.7l-5.7-1l-3.3,1l2.3,14.3c0,0-22.7,3.7-24.7,3.7
			s-8.3,3-9,0.3s-4.7-0.7-4.7-0.7c-5.3,4.7-12.3,36.7-12.3,36.7s-6.3,8.3-11,10.3s-6.3,5.3-6.3,5.3s1,8.3-0.7,8.7s-4,10.7-4,10.7
			l8.7,30.7l-21,6L1307,339.9z"/>
		<polygon class="st3" points="1378.4,461.1 1382,456.1 1382.5,462.4 1387.7,462.4 1390.9,457.4 1395,456.8 1395.7,459.9 
			1399,457.6 1406.7,462.9 1420.9,465.4 1421.5,475.4 1422.4,480.3 1385.4,488.6 1380.5,477.4 1378.4,476.8 1377.2,471.4 
			1381.9,471.1 1380.2,468.8 		"/>
		<path class="st3" d="M1427.1,634.4l10-13.2l59.5-38.5l0.5,5.5l22.5-1.2l5.8,7v23.8l5.5,1.5l1.8,2.2l9.2-7.8l19.8,23.8l-12.8,9.5
			c0,0,8,0,8.8-1.5s8.5-1.8,8.5-1s3.5,5.5,3.5,5.5l-0.5,2.5l0.8,1l2.5-0.5l2,3l-2,1.2l3,8.2l2.5-1.2l2.5,4.5l-11.8,3.8l-0.2,1.5
			l-1.8,1l-0.8-3.8l-2.5,2.8l1.5,2.5l-6.2,2.5l-0.2-3l-3.5,1.5l-0.2,3.5l-5,1.5v2.2l29-12.5l3.2,3.8l2.5-0.5l4,7.2l-3.8,2.2l2.5,5
			l2-2l2,2.8l-3.2,3.2l6,8.8l6,3.2l4.2,30.2l-21.2,5.5l-1,10.8l12.8,4c0,0,5.2,4.8,8.5,4l0.8,1.8l-2.8,1.8v5l0.8,2.5l5.8,0.2l-0.5,3
			l-5.8,0.5l-0.2,14l4.8,0.2l1,3.2h-6l-1,13.2l6,1.5v3l-5.8,0.5l-3.8,0.5l-0.2,12.8h-19l-0.8-3l-26.2-2l-5.8-1l-3.8,3.5l-16,1.2
			l0.5-2.8h-2.5l-0.5,2.2l-7.2-1.8l1.8-13l-1.5-2.2v-6.8l2.5-2l-25.5-0.5l0.2,9l-4.8,11l2.8,23.5l-2.5,4.8l1.2,15l-10,1.8l-0.2,7.8
			l2.5,2.8l-1,3l0.2,4.5l-5.8,3.2l4.5,10l0.5,5l-19.8,6l-5.2-36.2l-9.5,6.5l-15.2,1l-6.2,2v4.5l-5,1.8l0.2-5l-8.8,1.8l1.2,3.2h-8
			l-15.5,4.5l3.8,11l-9.2,4.2l-10.5-8.2l-8,5l-3.8-5.2l1.5-3l-4-5.8l2.8-3.5l-10.8-11.8l-7-6.8l2-3.5l-1.2-3.5l3.8-0.5l3,3.2l7-9.2
			l2.5-20.8l7.8-14.8l6-1l-11.2-20l-4.2-0.5l-0.5-1.8l3-1.8l-4.5-7l-3.5-3.5l-0.2-1.5l-2.2-1.8l-2.2,1.2l-3,0.2l-1-11.8l-4.8-7.5
			l-5-41.5h4.5l0.2-4.5l3,1v2.8l5.2,1l2.2-2l3.2,1.2l0.2,2h3l0.2-2l4.5,1.8v2l4.8,0.2l1-2l2.8,1.2l0.5,3.2l6-0.8l-36-48.2l23-1.5
			l3.2-3.2l6.5,5.5l4-4.5l2.5,2.2l-1,4l2,2.8l0.8-2h3.8l1,1.5l2.2-1h1.5v3.2l1,3.5l1.5,4.2l-4.5,2.8l8.8-1.2l1.5-1l18-4.5l11.2-0.8
			l-1.2,6.5l7.5,1l0.5,5.8l7.8,1.8l0.8,15.2l14.8,4.2l-1.2,28.5l4.8-0.2l5.8-5.5l20.2-7.8l16.2-12.8l-1.2-2.2l-3.8,1.8l-2-4l4-2
			l-3.5-14.2l-16,6.8l-10.5-13.8l-16.2-15l-5.5,7.2l-12.8-7.5l1.2-4.8c0,0-5.2-5.8-2.5-10.8c0,0-3-5.8,0.8-9.8l-4.2-9.5l0.5-2.8
			L1427.1,634.4z"/>
		<path class="st3" d="M906.4,912.9l33.3-0.7l3.7,4l11-1.7l6.7,4l7-1.7l6.3,7.3l5-0.3l2,3l5.7,1l16,43.3l0.3,7.3l9,4.3l-4.3,10l5,2
			l1.3,17l3.7,0.3l0.3,18c0,0,8.3,6.7,5.3,7.7s-10.7,2-10.7,2l-11,14l-12.3-4.3l-18,62.3l-1.3,7l-2.3,3.3l-50.7-43.7
			c0,0-11-1.7-15,0s-6.7,1.3-6.7,1.3s2-0.3,0.7-9.3s0-18.7,1-19.3s4.3-2,6-1l17.7-7.7l4,4l12.7-4.7c0,0,7.3-13.7,8-16l-7.7-0.3
			l-26.3,5l-3.7-15.7l15-3.7l0.3-16.7l-6.3,2l-8.3,0.3l-1.3-15.7l5.7-3.7l-4.7-15.3l2.7-2.3l4.7,1.3l3.3-3l-1.3-5l-9.7,0.3l-11.7-8
			l7.3-29L906.4,912.9z"/>
		<path class="st3" d="M1115,981.6l-20.7-1l-4-2.3l1,16l-17,1.7c0,0-0.7,12-1.7,14.7s-4.3,11.3,2.7,15c0,0,3.3,4.3,3,7.3v9.3
			l-21.3,0.3l-3-4l-15.7,1c0,0-1-11.7,3.3-14c0,0-5.3-0.3-4.3-2.3c0,0-2.7-3.7,0.7-5.3l6.3-1.7l-1-5h-5.3c0,0-1-3,0.3-5s1.3-2,1.3-2
			l-8.7,3.3l-0.7-5.7l-5-5.7l-1.3-8.3l7-4l-3-18l-7.3-13.3l-1.3-5h8.7l2.7,2.3l17.7-1.7c0,0,9-6.7,27.3-0.7l32,13.7l-1.7,5l6.7,4.3
			c0,0,2.3,1.7,2.3,3.3c0,0,0,7.7,0.3,6"/>
		<path class="st3" d="M763.7,980.6l10-7.3l12,24.7l7-3.3c0,0,4.7-0.7,6,1.7l5,8l8.3-5l4,4l-11,11.7c0,0,0.7,17-2,19
			s16.7-9.3,16.7-9.3l7,7l-2.3,3.7c0,0,5.3,4.7,0.7,10v2.7l6.7-3.7l8.7-22.7c0,0,0-2-0.7-4l2-4.3l6.7,3.3l-2,3.7l9,4.3
			c0,0,0.3,1.7,0.3,2.7s5,0.3,5,0.3l3,3.3l2.3-1.7l1,1.7l-4,4l2.7,2.3l10.3-5.3l2.7,1.7l7.3,7l-0.7,9c0,0-23,18-26.3,22.7
			c0,0-5,11.3-19.7,15.3l4.7,19.3l-9,2.7l2,5l-3.3,2.7c0,0-5.3,8-6,10.3s-20,8-20,8s1.3-1.3-0.7-3.7c0,0-3.3-4-5.7-5s-8.3,1-10.3-3
			l-2.7-7.3c0,0-7.3,4.7-9.7-0.3s-14.7-26.3-14.7-26.3l17-6l-0.7-7.3c0,0-10-0.7-18-8l-23,1.7l-11-19l13-5l-3.3-11.3
			c0,0,9.7-2.3,11-2.3s8.3-4.7,8.3-4.7l-0.7-2.3l12.3-5.3l1.3,2l8.7-3l-24.7-24.7l13.7-8L763.7,980.6z"/>
		<path class="st3" d="M540.7,1002.3l4-0.7c0,0,2,5.3,2.7,6.3s3,4.7,3,4.7l-6,5l-19,7.3l-4,4l-9-10.3l7.3-3l-8.7-5l-3.7-3l-3.3,1.7
			l-2.7-3.7l-22.3-8.3l8-11.7l-8.3-9.3l1.7-6.7l-4.3-6.7l-0.3-1.3l-5.7-5.7l-3,2.3l-9.3-5.3l-14,16l-4.3-4.7l9.7-8.7l-6.7-20
			l-14.7,5.7c0,0-6.3-12-5.3-12s26-9.7,42.3-9l-0.3,7.7l8.7-0.3c0,0,8-11.3,12.7-15l-2.7-7c0,0-18.3-10-19.7-19.7s-5-24.3-5-24.3
			l-6.7-9.3l-4.7-1.7l-0.3-5.7l4-1l-1-6h2c0,0-34.3-33.7-35-52.3l-6.3,3.3l-27-13l-0.3,14c0,0-4.3,2.3-9.7,1.7s-4,3.3-6.7,5.7
			s-11.4,7.7-13.7,2l-8,2l-1.7,5l-5.7-0.7l2.7-10l0.7-24l1.7-2.7l10.3,0.7l-7.6-9l10-7.3l-3.7-11.3l5.3-1.3l-0.7-5H353l-2-1.3
			l-3,1.3l-3.7-15.7l4.3-2l-5.3-8l5.3-4.3l4.3,0.7l3-7h4.7l-2,16l1.3,3.3l2.3,0.7l7.7-2l1.3,10.7l29-3.7l1.7-8.3l34.7-14l3-5.7
			l-6.3-9.3l-13,6.3l-4.7-8.7l22.7-4.3l-8.3-44.7c0,0,8.3-3,10.3-4.7l-0.3-2.3l34.7-18.7c0,0,10,2.3,16,1.7s10.7-11,11-13.7
			s-2.7-9.7,2.7-14.7s17-10,17-10l12.3,1.3l7.7,6l24.3,25.7l3-1l4.3,5.3l-3.7,6.3l17.3,12.7l-8.7,8l3.7,7.7l6.3-5l26.7,45.3
			l-4.3,4.7l6,3.7l32.7-37l15-3l34.3,29.3l1,42l-23,1l3.3,8.7l3.7-3c0,0,7.3,29.7,0.3,32.7l-6.3,2v4.3l20.3-3.7l1,5.3l-5.7,10.3
			l3.3,18.3l-10,1.7c0,0-6.3,4.7-7,9s-13,10-15.3,12s-12,3.3-17,5.7s-27,20-30,22.7s-9.3,11.7-11.3,17.3c0,0-7.3,21-25.3,32.3
			c0,0,10.7,4.7,10.7,18l-33.7,18.7l-11,5.3l-12.7,9.3l5.7,27l-4.3,2l-2.3-9l-2.7,2.3l-6.3-21.3c0,0-2.7-1.3-5.7-0.7s-3,5-3,5
			l-8.3,9.7l-4-1.3l-5.3,7.3l-2.3,5.7l-9,13l11.3,4.7l5,2l12,1l18.7,7.7l-1.7,7.7l2.7,0.3l10.7-3.3l-3.7-7L540.7,1002.3z"/>
		<polygon class="st3" points="542.4,538.4 601.9,486.4 620.9,508.4 616.9,514.9 622.9,514.9 626.9,510.9 649.9,540.4 640.9,546.4 
			622.9,547.4 614.4,554.9 599.4,543.4 593.9,546.9 585.4,542.4 		"/>
		<path class="st3" d="M611.4,573.4c2,1,38-11.5,38-11.5l4.5,5l9,45.5l-47,57.5l-20-79L611.4,573.4z"/>
		<path class="st3" d="M306.4,456.9l46.6-9.5l57.4-32.5l57-84.5c0,0,2.5-5,5.5-5.5s17.5-1.5,17.5-1.5s23,56,26,58.5s9,14,9,14
			l-22,12l-5,11l-7,4l-24,41.5l47,31.5c0,0,6,5,7.5,8s10,12,10,12l-116,53.5l5,48.5l-27-8c0,0-14.5-6.5-18-13.5l-20,6c0,0-7,4-8.5,7
			l-21,19c0,0-5,2.5-4,0l0.5-4.5l-26-17.5c0,0-9.5-5-2.5-16l20.5-30.5c0,0,12-56.5-12.5-82.5l-6-6L306.4,456.9z"/>
		<polygon class="st3" points="1636,390.3 1650.7,362.9 1682,376.9 1712.7,368.3 1726.7,333.6 1772,336.3 1774.7,368.9 
			1775.4,373.6 1721.4,392.3 1726.7,419.6 1739.4,430.3 1778,440.9 1794.7,440.9 1794.7,447.6 1787.4,448.3 1790,490.3 1776,496.9 
			1763.4,494.3 1755.4,495.6 1757.4,478.9 1724.7,462.3 1715.4,476.9 1698,434.9 		"/>
		<path class="st3" d="M1700.7,528.3l15.3-2.7l14.7-6l-4-6l10.7-3.3l18.7,24.7l4.7,1.3l4.7,6l5.3-1.3l4,6.7l-7.3,4l-2.7,2l-6.7,0.7
			l-6,4.7l2,5.3l8.7-3.3l23.3-19.3l-2-4.7l-6.7,4l-3.3-6.7l5.3-0.7l6-21.3l4.7-2l17.3-2.7l6-5.3l6.7-3.3l0.7,6.7l8.7-11.3l57.3-27.3
			l4-9.3l-16-4.7l6.7-26.7l-8.7-3.3l-19.3,26.7l-23.3-16l-8,4l-24.7-5.3l-12,4.7l-20-5.3l-3.3-9.3l-28.7-9.3l-3.3-18.7l4-2.7
			l18.7-9.3l19.3-4l14,0.7l16,4l8.7-0.7l-6-6.7l-20-6l52-18l7.3,7.3l6.7-4.7l-5.3-11.3l18.7-4.7l4.7,4l9.3-8h6l-2.7-12.7l-22.7,12.7
			l-9.3,1.3l-6-4.7l-10.7,2.7v-4c0,0,13.3-9.3,15.3-11.3s10.7-36,10.7-36s-50.7-2-56,0s-40.7,7.3-40.7,7.3l-2.7-6
			c0,0-6-9.3,4.7-14.7s46-19.3,46-19.3s24.7-20,33.3-21.3l-10-17.3l-8,2l-5.3-5.3l-4.7,0.7l2.7,7.3l-5.3,2.7c0,0-6-16-9.3-17.3
			s-6,5.5-6,5.5s-6.5-4.8-19.2-3.2l-18.5,3.5l1.2-10.2l-1-6.5l9.2-5.8l-1.5-3.2l-9.5,2.5l-1.8-3.8l10.2-1.5l-2.2-9.5l-9,2.8
			l-1.8-7.2l-16.2,4l0.8,5.8l-6.5,3.2l-2.8-7.2l-13.2,3l-9.2-25.2l14.2,2.8l30.5,1l-14-16.2l3.2-3.8l-13.8-14.5l5.2-9.8l7-11l4,0.8
			l0.8-7l4.5,0.2l-2,7l12.5,26l7.5-8.5c0,0,2-0.8,3.8-0.2s9.2,6.5,9.2,6.5l11.5-10c0,0,0.8-10.5,8.8-16.5v-7.5l12.8-0.2l8.2,6l2,3.8
			l4.2,0.8l1.8,1.8l2.2,0.2l8.2,7.2v5.8l-5.5,8.8l9.2,7.5l1.5,5l3.2,2.8l5.8,5l1.2,4.2l5.2,8l3.8,2.2l2.2,4.8l2.5,4.8l3.2,2l0.5,3.8
			l-0.5,12.5l-3.2,2l3.5,10l-2,0.2l1.8,7l2.8,7.2l7,16.2l-22,9.5l3.8,6.2l7.8,3.8h3l-0.5-3.2l4.8-0.5l1.2-9.8l2.8,0.5l1.2,4.2
			l3.5,0.2l1.2,2.2l3.2-1.5l1,1.5l-1.5,2.5v2.5l4.2-1.8l2.2-0.2l3.2,3.2l5.5-0.8l5-3.8l-16.2-39.2v-4l5-0.2l0.8-3.8l-4.2-5.5
			l1.5-12.2h10.5l5-5c0,0-12.2-8.2-13.8-23.8l2.8-3.2c0,0-4.5-4.2-1.8-12.5s4.2-8.5,5.8-13.5s5.5-0.8,5.5-0.8l4.5-4.8l2,0.5l0.5-2
			l5.8,1.5l4-0.5l-0.5-7.2l0.8-2l1.5-6l12.5,2.8l12.2,15.8l7.8,0.2l5.2-40.8l13.2-1.8l26,16l1,24.5l4.2-0.8l-0.2-2.8l6.8,0.2
			l0.5,4.2l6,0.2l-1.2-5.5l7.2-0.2l1,3.8l4.5,1l0.2,5.8l2.8,4l7,2l6.5,0.5l-0.5-13l2.5-1.5l-6.5-8.5l6-12l-9.8-3.2l5.5-10.5
			l0.5-12.8l2.8-12.2l-3.8-1.5l1.2-5.2l-7.8-3.2l4.8-16.5l5.2,1.5l-0.5-8c0,0-4.8-6.5-4-6.2s13.5-1,13.5-1l5.5-15.5l7.2,9.8
			l68.8,31.8c0,0,14.2,20.8,21,45.2l64.8,192.8c0,0-2.8-0.8-4.2,1s-3.5,4.8-3.5,7.2s-2.2,14-3,16s5,13.5,6.8,14.5s8,9.5,6.8,15.5
			s-1.2,8.2,1.2,7s7,2,7,2l3.5-4c0,0,2.8,8.8,2.2,11.8s5.5,10.2,5.5,17.2s-1,98-5.2,104.2c0,0-45.8,0.8-46.5,1.8s-3.5-11.2-3.5-11.2
			l-25.5,12l-11.2-22.8l25.5-11.5l0.5-11.8l12.5-4.2c0,0,0-9.2,2.5-14.2c0,0-6.2-2.8-15.2-2.2c0,0-15.2,1.2-16.2-0.2l-17.2-13.2
			l-7.2,8l-36.2-48l-17.5,14l-32.5-34.5l-2,4l-5.2-1.8l-11.2,9l-2.5-4.2l3.8-3.5l-0.8-2.2l-4.5,3l-3.2-3l2.2-1.8l-3-6.2l-2.2,2l-6-7
			l3-2l-8.8-8.2l-9.5-16.8l-28,14l2.2,3.2l3.8,0.8l6.2-5.5l5.2,3l0.8,4l7.5,7c0,0-0.8,1.5-0.8,2.8s-1.5,6.2-1.5,6.2l-2,5.2
			l-32.2-17.8c0,0-9.5,12.2-1.2,28.8s11.8,22-3,32.2c0,0,3.8,8-2,11.8c0,0,4.5,15.8,6.8,17.8l2.2,1.2l-3.8,13l-4.8-1.5l-1.2,14.2
			l-74,35.8c0,0-4,17.8-4.5,18.5s-6.8,2-9.8,0.8l-4.5,12.2c0,0,5.5,3.8,5.5,8.8s0.5,10,0.5,10l-3.5,1.8c0,0-0.5,2.5-0.5,3.8
			s6.5,1,6.5,1s3.8,1.2,4.2,2s-1.2,6.2-1.2,6.2l12,8.2l4.5-10.8l7.2,0.5l2.2-2.2l2.8,0.5l3,2.8l4.2-1.5l2.8,0.8l6.2,1.8
			c0,0-3.2,7-3.2,7.8s-16.5,6.8-16.5,6.8l-6.8,2.2l-5.2-2.8l-3.2,7.5l-5,7.2l0.5,4.2l-1.2,1l-6-4l-5.2,10.8l12,7l-5,18.8
			c0,0,8.8,16-0.8,24.2s-24.5,11.2-24.5,11.2l2,6.5l8.2-1.2l0.8,2.5l-6.8,3l0.8,3.8l-1,2.2l-2.8-4.2l-5.5,3.5c0,0-7.8-4.5-9.8-8.2
			l-2.2,1.8l2,5.5h-9l0.8-4.2l-5-0.2c0,0-1.5,11-19.2,11.2l-1.8,3.5l-14-0.8l-0.8-4.8l-10.5,4l-0.8-3.5l3.2-0.5l-3-2.8l-0.8-10.5
			l2.8-2.8l2-9l-12.5,18.8l-36-32.5l9-5.2l2.5,0.2c0,0,1.2-2-1.8-5c0,0-7.8-5-8-8.2s0-8.2,3.2-10.5s4.5-5.2,4.5-5.2s-2.8-2-6-1.2
			s-6.5,4.5-6.8,5.5s1.2,3.5,1.2,3.5l-32.5,19.5l-6.2-17c0,0-0.5-4.8-1.5-6.5c0,0,4,2.8,3.8-2.5c0,0,0-2,3-3.2l-10.2-17
			L1700.7,528.3z"/>
	</g>
	<g id="Water">
		<path class="st4" d="M665.9,1112.9l-13.5-27.5c0,0-10.5-11.5-6-27.5s23.5-27.5,23.5-35s-3-14.5,3.5-33s0.5-16.9,12.5-29.9
			s16-26.6,23-28.1s22,1.5,29.5-2s8-13,9-29.5s3.5-34.5,20-35.5c0,0,10.5,7.5,17-2s16.8-18.8,24-21s13.8-1.8,13.8-5.2
			s-12.8-50.5-14.2-59.5s-3.8-10.8,1.5-26s24-60.8,24-62s0.2-4-0.2-5.2s-18.2-28.8-19.5-30.2s-10.8-14.8-31.2-15.5
			c0,0-51.2-4.8-70.5-32.5s-187.2-216-187.2-216s-25.8-25.8-28.8-83s-6.5-205.8-6.5-205.8s-2.8-6-17.5-7s-336.8-69-336.8-69"/>
		<path class="st4" d="M822.2,838.3c0,0,20.2-8.7,24.8-11.8s5.2-6.3,8.5-5s9.3,2.2,11.7-3s11.7-1.7,15.2-1.8s20.2-2.2,25-3.3
			s22.3,0.8,27.2-12s10.7-9.3,11.2-11.8s0-2.8-3.7-3.8s-6.3-5.5,2.2-6.8s5.5-3,3.2-9.3s-1.7-19.3,1.8-24.2s9.3-10.3,10.5-14.2
			s0.5-11,5-11.8s7.8-0.3,7.5-3.8s5.2-8.2,8-9.3s6.8-7,11.2-7.7s5.7-5.3,7.2-10.2s8.8-9.3,4.8-16.7s-0.7-16.3,0.5-17.2
			s11.8-16.5,13.8-18.3s10-1.5,12.8-7.2s11.3-22,11.5-24s5.2-4.7,6.2-8.5s0.5-5.8-3.2-8.5s-9,0.7-9.8-11.3s-7.2-22-8-38.5
			s-9.3-12-1-27c0,0,11.2-14.2,18.3-18.3s30.5-11,39.5-15.8s13-13,14.8-18.7s0-8.8-0.7-13.8s0.7-7.8,6.3-11.5s10.2-5.7,10.8-16.7
			s2.7-12.3,9.3-10.7s6.8-11.2,11-18.2s9.8-12.3,19-12.2s26.3-7.8,23.2-15.5s-1.3-8.8,5.5-8.8s17.7,1.8,22.2-2.8s-0.3-8-4.7-9.2
			s-21.5-22-22.8-24.7s6.5-1.7,3.7-7.8s-9.2-4.7-10.3-16.5s2.2-39.8,3.2-44s-0.5-5.7-1.5-8.3s-5.3-9.2,0.2-10.8s8.3-4.2,6.5-7.2
			s-4.5-4-6.8-5.5s-5.5,1.5-5.8-2.3s4.2-4.7,2.7-8.7s-7.3-1.7-9.7-0.8s-0.5-3.3-0.3-6.7s-5.3-10.5,1.3-16.3s12.3-12.3,11.2-21.3
			s-3-12.2,8.3-15s13.7-5,13.5-10.3s2.2-18.3,5.7-24.8s11.7-13.8,11.7-15.2s1-8.3-1.3-11.3s-7.7-11.3-8.3-16.2s-1.8-5.2-3-5.8
			s-9.7-3.2-12.5-6c0,0-2.5,2.3-5-14.3s-0.5-15-2-20.3s-1.2-8.3-1-9.3s1.2-6.5-4-4.3s-6.5,9.2-9.5,5.5s-5-6.3-7.5-8.7
			s-5.8-5.7-7.7-9.7c0,0-3.4-7.2-3.4-8.2s-3.2-3.2-3.8,0.2s-5,2.2-5,0.5s2-6.8,3-7.5s4.2-2.5,3-9.2s-3.2-3.5-5-3.5s-11,6.5-17.8-3.5
			s-2.8-5.8-3.2-8.2s-5.5-6.8-5.5-6.8s-3.5-3-5.5-6.5s-6.2-9-0.2-13s11-7.5,12.2-10.8s27.2-22,31.8-27.2s4-4,1-9s-9-5.8-9.8-7
			c-0.8-1.3-0.8-3.5-1.5-6.3s-3-5.5-7.5-7s-9.2-2.8-9-8.5"/>
		<path class="st4" d="M985.4,704.4c0,0-8,16.2-1.8,19s9.2,11.8,9.5,15s-3.2,15.2,5.2,15.8s16.2,9,13,20.5s5,9.8-6,14.5
			s-13.2,9.5-14.8,15.5s-12,9.2-13,13.2s7.2,14.2,5.5,17.8s-3.2,9,2.8,16.5s4,14.2,2.5,14.8s-7.8-4.2-8.5,6c0,0,0,6.5,1,7.8
			s5,8.8,3,10.5s-1.5,5.5,0.5,6.8s3.5,12,3.2,12.5s-1.2,6,4.8,10s5.5,8.5,4,7.5s-2.8,3,1.8,8.5s4,10.8,4.5,14s6.5,9,5.2,19.8
			c0,0-1,5.2,3.2,9.2s6.2,2.2,6.5,6.8s-1.2,10-0.5,16s4,10,3.2,15s2.2,4.8,4.2,6.8c2,2,1.2,4.8,4.2,6s2.8,6.8,1,10.8"/>
		<path class="st4" d="M1939.4-148.1l-113,37c0,0-25,6-65,6s-158,5-158,5s-38,4-43,4s-404,62-404,62s-50,9-54,9s-376,20-376,20
			s-44-1-87,24s-131,72-141,75s-17,2-17,2"/>
	</g>
	<g id="Grote_weg">
		<path class="st5" d="M851.4,645.6c7.7,21,4.7,26,60.7,58s101.3,30,134,35.3s32-4.7,39.3-7.3s39.3-28.7,48.7-43.3s10-30,16.7-66
			s-10-76.7-32.7-118.7s-64-34.7-74-34.7s-16.7-3.3-74.7-0.7s-95.3,32-124.7,43.3s-19.3,34.7-19.3,34.7S849.9,641.5,851.4,645.6z"/>
		<path class="st5" d="M672.7,475.9c0,0,101.3,56.3,120,76.3s38,25,40,25"/>
		<path class="st5" d="M1034.7,467.6c0,0,23.3-237.3,26.7-290.7c0,0,7-16.3-27.3-72c-25.9-42-43-64.3-43-64.3
			s-52.7-116.7-54.7-196.7"/>
		<path class="st5" d="M1126,519.6c0,0,68.7-38,95.3-54s90.7-23.3,90.7-23.3s86.7-15.3,142.7-38.7s208-68,208-68s96-46.7,119.3-50
			s86-0.7,120.7-24.7s63.3-30.7,92.7-32.7"/>
		<path class="st5" d="M1061.4,912.9c0,0,79-14,99,81s34,127,53,158s40,70,40,70"/>
		<path class="st5" d="M1155.4,974.9l-14-58c0,0-40.7-144-60-182.7"/>
		<path class="st5" d="M1010.4,909.9c0,0-4,43-12,61s-58,224-58,224"/>
		<path class="st5" d="M790.4,911.9c0,0-40,13-59,12s-30-14-127,31s-106,37-131,40s-114,53-180,91"/>
		<path class="st5" d="M644.4,935.9c0,0,80-19,77-51"/>
	</g>
	<g id="Snelweg">
		<path class="st6" d="M2306.4,753.9c-90-13-205-13-205-13c-167,4-142,5-289,25s-254,90-312,126s-228,24-281,23s-102,3-117,1
			s-179-13-282-6s-95-14-99-24s-19-148-19-184s-18-60-4-131s-21-95-30-98s-45-21-69-58s-32-112-38-174.9s45-65.1,45-65.1
			s88-36,108-52s181-61,207-62s57-3,70-21"/>
		<path class="st6" d="M700.4,131.9c0,0,28-29-10-74s-167-223-175-237s-31-48-31-48"/>
		<path class="st6" d="M588.4,178.9c0,0-50,0-166-39s-123-43-254-47s-168-15-168-15"/>
		<path class="st6" d="M561.7,248.6c0,0,11.7-61.7-72.3-89.7"/>
		<path class="st6" d="M791.4,92.9c0,0-46,17-95-27"/>
	</g>
	<g id="Spoor">
		<g>
			<g>
				<path class="st7" d="M1580.4,1219.9c0,0-0.5-1.3-1.5-3.7"/>
				<path class="st8" d="M1577.3,1212.6c-15-36.4-80.9-196.3-96-232.6c-17-41-21-91-29-131c0,0-4.3-39.3-25-67
					c-30.1-40.2-160-189-160-189s-47-60-163-53l-120,25c0,0-40,14-76-32c-40.3-51.5-259-315-259-315s-40-50-48-64
					C594,141.1,463.5-93.6,442.3-131.8"/>
				<path class="st7" d="M441.3-133.6c-1.3-2.3-1.9-3.5-1.9-3.5"/>
			</g>
		</g>
		<path class="st9" d="M1684.4,425.9c0,0-458.5,99-469,102s-62,12.5-62,12.5c-5-1-61-2-61-2l-88.5,17.5c0,0-14,8.5-16.5,9
			c0,0,37.5-3.5,59-8.5s53.5-11,53.5-11l10,0.5l33.5-5"/>
	</g>
</g>
<g id="Teksten" class="st0">
	<text transform="matrix(1 0 0 1 962.5181 597.084)" class="st10 st11 st12">Eindhoven</text>
	<text transform="matrix(1 0 0 1 1076.5181 500.084)" class="st10 st11 st12">TUE</text>
	<text transform="matrix(1 0 0 1 1576.5181 279.084)" class="st10 st11 st12">AUTOMOTIVE CAMPUS</text>
	<text transform="matrix(1 0 0 1 1188.5181 638.084)" class="st10 st11 st12">DAF</text>
	<text transform="matrix(1 0 0 1 797.5181 830.084)" class="st10 st11 st12">HIGH TECH CAMPUS</text>
	<text transform="matrix(1 0 0 1 613.5181 898.084)" class="st10 st11 st12">ASML</text>
	<text transform="matrix(1 0 0 1 722.5181 622.084)" class="st10 st11 st12">VDL</text>
	<text transform="matrix(1 0 0 1 328.5181 434.084)" class="st10 st11 st12">EINDHOVEN AIRPORT</text>
	<text transform="matrix(1 0 0 1 348.5181 170.084)" class="st10 st11 st12">PHILIPS HEALTHCARE</text>
</g>
<g id="Dots" class="st0">
	<path class="st13" d="M1804.6,272.9c0,4-3.2,7.3-7.3,7.3c-4,0-7.3-3.3-7.3-7.3c0-4,3.2-7.3,7.3-7.3
		C1801.4,265.7,1804.6,268.9,1804.6,272.9z"/>
	<path class="st13" d="M1211.6,662.9c0,4-3.2,7.3-7.3,7.3c-4,0-7.3-3.3-7.3-7.3c0-4,3.2-7.3,7.3-7.3
		C1208.4,655.7,1211.6,658.9,1211.6,662.9z"/>
	<path class="st13" d="M1058.6,519.9c0,4-3.2,7.3-7.3,7.3c-4,0-7.3-3.3-7.3-7.3c0-4,3.2-7.3,7.3-7.3
		C1055.4,512.7,1058.6,515.9,1058.6,519.9z"/>
	<path class="st13" d="M743.6,648.9c0,4-3.2,7.3-7.3,7.3c-4,0-7.3-3.3-7.3-7.3c0-4,3.2-7.3,7.3-7.3
		C740.4,641.7,743.6,644.9,743.6,648.9z"/>
	<path class="st13" d="M884.6,854.9c0,4-3.2,7.3-7.3,7.3c-4,0-7.3-3.3-7.3-7.3c0-4,3.2-7.3,7.3-7.3
		C881.4,847.7,884.6,850.9,884.6,854.9z"/>
	<path class="st13" d="M643.6,924.9c0,4-3.2,7.3-7.3,7.3c-4,0-7.3-3.3-7.3-7.3c0-4,3.2-7.3,7.3-7.3
		C640.4,917.7,643.6,920.9,643.6,924.9z"/>
	<path class="st13" d="M403.6,459.9c0,4-3.2,7.3-7.3,7.3c-4,0-7.3-3.3-7.3-7.3c0-4,3.2-7.3,7.3-7.3
		C400.4,452.7,403.6,455.9,403.6,459.9z"/>
	<path class="st13" d="M438.6,128.9c0,4-3.2,7.3-7.3,7.3c-4,0-7.3-3.3-7.3-7.3c0-4,3.2-7.3,7.3-7.3
		C435.4,121.7,438.6,124.9,438.6,128.9z"/>
	<path class="st14" d="M1026.1,553.8c0,7-5.7,12.6-12.6,12.6c-7,0-12.6-5.7-12.6-12.6c0-7,5.7-12.6,12.6-12.6
		C1020.5,541.2,1026.1,546.8,1026.1,553.8z"/>
</g>
<g id="_x31_6x9-frame" class="st0">
	<g class="st15">
		<path class="st16" d="M-823.4-461.3v2122.5h3646.7V-461.3H-823.4z M1640,960H360V240h1280V960z"/>
	</g>
</g>
<g id="_x31_1x3-frame" class="st0">
	<g class="st15">
		<path class="st16" d="M-823.4-461.3v2122.5h3646.7V-461.3H-823.4z M1640,775H360V425h1280V775z"/>
	</g>
</g>
<path d="M955.2,401.9c3.3,0,6.2-1.2,8.5-3.5c2.3-2.3,3.5-5.2,3.5-8.5c0-3.3-1.2-6.2-3.5-8.5c-2.3-2.3-5.2-3.5-8.5-3.5
	c-3.3,0-6.2,1.2-8.5,3.5c-2.3,2.3-3.5,5.2-3.5,8.5c0,3.3,1.2,6.2,3.5,8.5C949.1,400.8,951.9,401.9,955.2,401.9z M955.2,458.8
	c15.2-13.9,26.5-26.4,33.8-37.7c7.3-11.3,10.9-21.2,10.9-29.8c0-13.5-4.3-24.6-13-33.2c-8.7-8.6-19.2-12.9-31.7-12.9
	c-12.5,0-23.1,4.3-31.7,12.9c-8.7,8.6-13,19.7-13,33.2c0,8.6,3.7,18.5,11.2,29.8C929.2,432.4,940.3,445,955.2,458.8z M955.2,472.4
	c-18.4-15.7-32.2-30.3-41.3-43.7c-9.1-13.5-13.7-25.9-13.7-37.4c0-17.2,5.5-30.9,16.6-41.1c11.1-10.2,23.9-15.3,38.4-15.3
	c14.6,0,27.4,5.1,38.4,15.3c11.1,10.2,16.6,23.9,16.6,41.1c0,11.5-4.6,23.9-13.7,37.4C987.4,442.1,973.7,456.7,955.2,472.4z"/>
</svg>
